<svg id="Line" height="512" viewBox="0 0 64 64" width="512" xmlns="http://www.w3.org/2000/svg"><path d="m17.06055 10.46338a13.0621 13.0621 0 0 0 -1.76955 26.00391.99975.99975 0 0 0 .26074-1.98243 11.1118 11.1118 0 0 1 -9.47852-9.6665 11.06373 11.06373 0 0 1 21.48389-4.79053 10.77354 10.77354 0 0 1 .27392 5.34619 72.64681 72.64681 0 0 1 -11.10303 26.60698 1.00011 1.00011 0 0 0 1.66308 1.11133 74.7315 74.7315 0 0 0 11.40872-27.36479 12.74521 12.74521 0 0 0 -.34521-6.33154 13.04243 13.04243 0 0 0 -12.39404-8.93262z"/><path d="m59.417 19.396a13.06335 13.06335 0 1 0 -14.16358 17.07129.99975.99975 0 0 0 .26074-1.98243 11.1118 11.1118 0 0 1 -9.47852-9.6665 11.06373 11.06373 0 0 1 21.48389-4.79053 10.77365 10.77365 0 0 1 .27393 5.34619 72.64708 72.64708 0 0 1 -11.10303 26.60698 1.00012 1.00012 0 0 0 1.66309 1.11133 74.73187 74.73187 0 0 0 11.40869-27.36479 12.74521 12.74521 0 0 0 -.34521-6.33154z"/></svg>