<svg width="180" height="26" viewBox="0 0 180 26" fill="none" xmlns="http://www.w3.org/2000/svg">
<path d="M161.846 0.491577L177.472 25.0366H174.663L159.107 0.491577H161.846ZM162.302 22.5435C162.092 22.8712 162.033 23.2107 162.127 23.5618C162.22 23.8896 162.396 24.1705 162.653 24.4046C162.934 24.6153 163.227 24.7206 163.531 24.7206C163.531 24.7206 163.602 24.7206 163.742 24.7206C163.906 24.7206 163.988 24.7206 163.988 24.7206V25.0717H156.017V24.7206H156.508C157.258 24.7206 157.948 24.5099 158.58 24.0885C159.212 23.6672 159.716 23.1873 160.09 22.6488L162.302 22.5435ZM167.218 12.0091L168.026 13.5191L160.722 25.0366H158.475L167.218 12.0091ZM173.082 22.5435L175.962 22.684C176.336 23.2224 176.84 23.7023 177.472 24.1237C178.104 24.5216 178.783 24.7206 179.508 24.7206H180V25.0717H171.432V24.7206C171.432 24.7206 171.502 24.7206 171.643 24.7206C171.783 24.7206 171.853 24.7206 171.853 24.7206C172.345 24.7206 172.743 24.4865 173.047 24.0183C173.375 23.5501 173.387 23.0585 173.082 22.5435ZM165.111 0.491577V0.842722C165.111 0.842722 165.041 0.842722 164.901 0.842722C164.76 0.842722 164.69 0.842722 164.69 0.842722C164.386 0.842722 164.093 0.959771 163.812 1.19387C163.555 1.40456 163.379 1.68547 163.285 2.03662C163.215 2.36435 163.274 2.69209 163.461 3.01982L160.652 2.91448C160.277 2.37606 159.774 1.89616 159.142 1.47478C158.533 1.05341 157.854 0.842722 157.105 0.842722H156.614V0.491577H165.111ZM176.945 0.491577L168.693 12.6412L167.499 11.7985L174.663 0.491577H176.945ZM179.333 0.491577V0.842722H178.841C178.116 0.842722 177.437 1.05341 176.805 1.47478C176.196 1.89616 175.693 2.37606 175.295 2.91448L173.047 3.01982C173.258 2.69209 173.317 2.36435 173.223 2.03662C173.153 1.68547 172.989 1.40456 172.731 1.19387C172.474 0.959771 172.181 0.842722 171.853 0.842722C171.853 0.842722 171.783 0.842722 171.643 0.842722C171.502 0.842722 171.432 0.842722 171.432 0.842722V0.491577H179.333Z" fill="black"/>
<path d="M131.747 0.491577V15.942C131.747 17.6275 132.051 19.114 132.66 20.4015C133.292 21.689 134.17 22.6957 135.294 23.4214C136.417 24.1237 137.717 24.4748 139.191 24.4748C140.76 24.4748 142.129 24.1354 143.3 23.4565C144.47 22.7776 145.383 21.8412 146.039 20.6473C146.694 19.43 147.022 18.0137 147.022 16.3985V0.491577H148.672V16.3985C148.672 18.2244 148.274 19.828 147.478 21.2091C146.706 22.5669 145.606 23.632 144.178 24.4046C142.75 25.1771 141.088 25.5633 139.191 25.5633C137.248 25.5633 135.54 25.1888 134.065 24.4397C132.613 23.6672 131.478 22.602 130.659 21.2443C129.863 19.8631 129.465 18.2595 129.465 16.4336V0.491577H131.747ZM129.57 0.491577V2.59845H129.465C129.465 2.08344 129.277 1.66206 128.903 1.33433C128.552 1.00659 128.119 0.842722 127.604 0.842722C127.604 0.842722 127.51 0.842722 127.323 0.842722C127.135 0.842722 127.042 0.842722 127.042 0.842722V0.491577H129.57ZM134.17 0.491577V0.842722C134.17 0.842722 134.076 0.842722 133.889 0.842722C133.702 0.842722 133.608 0.842722 133.608 0.842722C133.093 0.842722 132.648 1.00659 132.274 1.33433C131.923 1.66206 131.747 2.08344 131.747 2.59845H131.677V0.491577H134.17ZM147.127 0.491577V2.59845H147.022C147.022 2.08344 146.835 1.66206 146.46 1.33433C146.109 1.00659 145.676 0.842722 145.161 0.842722C145.161 0.842722 145.067 0.842722 144.88 0.842722C144.693 0.842722 144.599 0.842722 144.599 0.842722V0.491577H147.127ZM151.095 0.491577V0.842722C151.095 0.842722 151.002 0.842722 150.814 0.842722C150.627 0.842722 150.533 0.842722 150.533 0.842722C150.018 0.842722 149.574 1.00659 149.199 1.33433C148.848 1.66206 148.672 2.08344 148.672 2.59845H148.602V0.491577H151.095Z" fill="black"/>
<path d="M109.665 0.491577V25.0717H107.382V0.491577H109.665ZM119.146 23.9832V25.0717H109.559V23.9832H119.146ZM121.288 19.3832L119.251 25.0717H113.422L114.686 23.9832C115.927 23.9832 116.933 23.7959 117.706 23.4214C118.502 23.0234 119.146 22.4733 119.637 21.771C120.129 21.0687 120.562 20.2728 120.936 19.3832H121.288ZM107.488 22.5084V25.0717H104.678V24.7206C104.678 24.7206 104.749 24.7206 104.889 24.7206C105.053 24.7206 105.135 24.7206 105.135 24.7206C105.743 24.7206 106.259 24.5099 106.68 24.0885C107.125 23.6438 107.359 23.117 107.382 22.5084H107.488ZM107.488 3.05494H107.382C107.359 2.44629 107.125 1.93127 106.68 1.5099C106.259 1.06511 105.743 0.842722 105.135 0.842722C105.135 0.842722 105.053 0.842722 104.889 0.842722C104.749 0.842722 104.678 0.842722 104.678 0.842722V0.491577H107.488V3.05494ZM109.559 3.05494V0.491577H112.368V0.842722C112.345 0.842722 112.263 0.842722 112.123 0.842722C111.982 0.842722 111.912 0.842722 111.912 0.842722C111.303 0.842722 110.777 1.06511 110.332 1.5099C109.91 1.93127 109.688 2.44629 109.665 3.05494H109.559Z" fill="black"/>
<path d="M94.2881 0.491577V25.0717H92.0056V0.491577H94.2881ZM92.111 22.5084V25.0717H89.3018V24.7206C89.3018 24.7206 89.372 24.7206 89.5125 24.7206C89.6764 24.7206 89.7583 24.7206 89.7583 24.7206C90.367 24.7206 90.882 24.5099 91.3034 24.0885C91.7481 23.6438 91.9822 23.117 92.0056 22.5084H92.111ZM92.111 3.05494H92.0056C91.9822 2.44629 91.7481 1.93127 91.3034 1.5099C90.882 1.06511 90.367 0.842722 89.7583 0.842722C89.7583 0.842722 89.6764 0.842722 89.5125 0.842722C89.372 0.842722 89.3018 0.842722 89.3018 0.842722V0.491577H92.111V3.05494ZM94.1827 22.5084H94.2881C94.3115 23.117 94.5339 23.6438 94.9553 24.0885C95.4 24.5099 95.9268 24.7206 96.5354 24.7206C96.5354 24.7206 96.6056 24.7206 96.7461 24.7206C96.8866 24.7206 96.9685 24.7206 96.9919 24.7206V25.0717H94.1827V22.5084ZM94.1827 3.05494V0.491577H96.9919V0.842722C96.9685 0.842722 96.8866 0.842722 96.7461 0.842722C96.6056 0.842722 96.5354 0.842722 96.5354 0.842722C95.9268 0.842722 95.4 1.06511 94.9553 1.5099C94.5339 1.93127 94.3115 2.44629 94.2881 3.05494H94.1827Z" fill="black"/>
<path d="M77.0237 0L77.3046 2.35267L68.4908 21.9817C68.4908 21.9817 68.3972 22.1807 68.2099 22.5786C68.046 22.9766 67.8705 23.4565 67.6832 24.0183C67.4959 24.5568 67.3672 25.0718 67.2969 25.5634H66.9458L66.4542 23.3512L77.0237 0ZM55.4282 22.5084V25.0718H51.5305V24.7206C51.5539 24.7206 51.6476 24.7206 51.8114 24.7206C51.9987 24.7206 52.0924 24.7206 52.0924 24.7206C52.7244 24.7206 53.2862 24.5333 53.7778 24.1588C54.2695 23.7608 54.5621 23.2107 54.6557 22.5084H55.4282ZM56.4465 23.0702C56.4465 23.0936 56.4465 23.1171 56.4465 23.1405C56.4465 23.1639 56.4465 23.199 56.4465 23.2458C56.4465 23.6204 56.5753 23.9715 56.8328 24.2992C57.1137 24.6036 57.4415 24.7557 57.816 24.7557H58.3427V25.0718H56.2007V23.0702H56.4465ZM57.2893 0H57.6404L58.3427 2.07176L56.271 25.0718H54.3748L57.2893 0ZM57.6404 0L67.7534 21.8763L66.9458 25.5634L56.9733 3.93283L57.6404 0ZM77.3397 0L80.3595 25.0718H77.6206L75.6893 3.79237L77.0237 0H77.3397ZM79.3061 22.5084H80.0435C80.1606 23.2107 80.4649 23.7608 80.9565 24.1588C81.4481 24.5333 81.9982 24.7206 82.6069 24.7206C82.6069 24.7206 82.7005 24.7206 82.8878 24.7206C83.0751 24.7206 83.1687 24.7206 83.1687 24.7206V25.0718H79.3061V22.5084ZM77.445 23.0702H77.6908V25.0718H75.5489V24.7557H76.0756C76.4735 24.7557 76.8013 24.6036 77.0588 24.2992C77.3163 23.9715 77.445 23.6204 77.445 23.2458C77.445 23.199 77.445 23.1639 77.445 23.1405C77.445 23.1171 77.445 23.0936 77.445 23.0702Z" fill="black"/>
<path d="M27.0687 0.491577V15.942C27.0687 17.6275 27.3731 19.114 27.9817 20.4015C28.6138 21.689 29.4917 22.6957 30.6153 23.4214C31.739 24.1237 33.0382 24.4748 34.513 24.4748C36.0815 24.4748 37.4509 24.1354 38.6214 23.4565C39.7919 22.7776 40.7049 21.8412 41.3604 20.6473C42.0158 19.43 42.3436 18.0137 42.3436 16.3985V0.491577H43.9939V16.3985C43.9939 18.2244 43.596 19.828 42.8001 21.2091C42.0275 22.5669 40.9273 23.632 39.4993 24.4046C38.0713 25.1771 36.4092 25.5633 34.513 25.5633C32.57 25.5633 30.8611 25.1888 29.3863 24.4397C27.9349 23.6672 26.7995 22.602 25.9802 21.2443C25.1843 19.8631 24.7863 18.2595 24.7863 16.4336V0.491577H27.0687ZM24.8916 0.491577V2.59845H24.7863C24.7863 2.08344 24.599 1.66206 24.2245 1.33433C23.8733 1.00659 23.4402 0.842722 22.9252 0.842722C22.9252 0.842722 22.8316 0.842722 22.6443 0.842722C22.457 0.842722 22.3634 0.842722 22.3634 0.842722V0.491577H24.8916ZM29.4917 0.491577V0.842722C29.4917 0.842722 29.398 0.842722 29.2107 0.842722C29.0235 0.842722 28.9298 0.842722 28.9298 0.842722C28.4148 0.842722 27.97 1.00659 27.5955 1.33433C27.2443 1.66206 27.0687 2.08344 27.0687 2.59845H26.9985V0.491577H29.4917ZM42.4489 0.491577V2.59845H42.3436C42.3436 2.08344 42.1563 1.66206 41.7817 1.33433C41.4306 1.00659 40.9975 0.842722 40.4825 0.842722C40.4825 0.842722 40.3889 0.842722 40.2016 0.842722C40.0143 0.842722 39.9207 0.842722 39.9207 0.842722V0.491577H42.4489ZM46.4169 0.491577V0.842722C46.4169 0.842722 46.3232 0.842722 46.1359 0.842722C45.9487 0.842722 45.855 0.842722 45.855 0.842722C45.34 0.842722 44.8952 1.00659 44.5207 1.33433C44.1695 1.66206 43.9939 2.08344 43.9939 2.59845H43.9237V0.491577H46.4169Z" fill="black"/>
<path d="M4.98626 0.491577V25.0717H2.70382V0.491577H4.98626ZM14.4672 23.9832V25.0717H4.88092V23.9832H14.4672ZM16.6092 19.3832L14.5725 25.0717H8.74352L10.0076 23.9832C11.2484 23.9832 12.255 23.7959 13.0275 23.4214C13.8234 23.0234 14.4672 22.4733 14.9588 21.771C15.4504 21.0687 15.8835 20.2728 16.258 19.3832H16.6092ZM2.80916 22.5084V25.0717H0V24.7206C0 24.7206 0.070229 24.7206 0.210687 24.7206C0.374555 24.7206 0.456489 24.7206 0.456489 24.7206C1.06514 24.7206 1.58015 24.5099 2.00153 24.0885C2.44631 23.6438 2.68041 23.117 2.70382 22.5084H2.80916ZM2.80916 3.05494H2.70382C2.68041 2.44629 2.44631 1.93127 2.00153 1.5099C1.58015 1.06511 1.06514 0.842722 0.456489 0.842722C0.456489 0.842722 0.374555 0.842722 0.210687 0.842722C0.070229 0.842722 0 0.842722 0 0.842722V0.491577H2.80916V3.05494ZM4.88092 3.05494V0.491577H7.69008V0.842722C7.66667 0.842722 7.58474 0.842722 7.44428 0.842722C7.30382 0.842722 7.23359 0.842722 7.23359 0.842722C6.62494 0.842722 6.09822 1.06511 5.65344 1.5099C5.23206 1.93127 5.00967 2.44629 4.98626 3.05494H4.88092Z" fill="black"/>
</svg>
