<svg xmlns="http://www.w3.org/2000/svg" width="48" height="48" viewBox="0 0 48 48" fill="none"><path d="M20 12V2H28V12" stroke="currentColor" stroke-width="1.5" stroke-linecap="round" stroke-linejoin="round"></path><path d="M10 27.8V12H38V27.8" stroke="currentColor" stroke-width="1.5" stroke-linecap="round" stroke-linejoin="round"></path><path d="M2 38.2C2 42.6 5.6 46.2 10 46.2C13 46.2 15.6 44.4 17 42C18.4 44.4 21 46.2 24 46.2C27 46.2 29.6 44.4 31 42C32.4 44.4 35 46.2 38 46.2C42.4 46.2 46 42.6 46 38.2" stroke="currentColor" stroke-width="1.5" stroke-linecap="round" stroke-linejoin="round"></path><path d="M10 38L6 30L24 20L42 30L38 38" stroke="currentColor" stroke-width="1.5" stroke-linecap="round" stroke-linejoin="round"></path></svg>