<svg xmlns="http://www.w3.org/2000/svg" width="49" height="48" viewBox="0 0 49 48" fill="none"><path d="M18.6667 10H34.6667V24" stroke="currentColor" stroke-width="1.5" stroke-linecap="round" stroke-linejoin="round"></path><path d="M24.6667 16L18.6667 10L24.6667 4" stroke="currentColor" stroke-width="1.5" stroke-linecap="round" stroke-linejoin="round"></path><path d="M14.6667 46C16.8758 46 18.6667 44.2091 18.6667 42C18.6667 39.7909 16.8758 38 14.6667 38C12.4575 38 10.6667 39.7909 10.6667 42C10.6667 44.2091 12.4575 46 14.6667 46Z" stroke="currentColor" stroke-width="1.5" stroke-linecap="round" stroke-linejoin="round"></path><path d="M38.6667 46C40.8758 46 42.6667 44.2091 42.6667 42C42.6667 39.7909 40.8758 38 38.6667 38C36.4575 38 34.6667 39.7909 34.6667 42C34.6667 44.2091 36.4575 46 38.6667 46Z" stroke="currentColor" stroke-width="1.5" stroke-linecap="round" stroke-linejoin="round"></path><path d="M44.6667 12L40.6667 32H12.6667L8.66666 2H2.66666" stroke="currentColor" stroke-width="1.5" stroke-linecap="round" stroke-linejoin="round"></path></svg>