<svg xmlns="http://www.w3.org/2000/svg" width="48" height="49" viewBox="0 0 48 49" fill="none"><g clip-path="url(#clip0_141_2352)"><path d="M3.62256 26.7924C2.91651 26.0863 2.91651 24.9375 3.62256 24.2318L20.8525 7.00191C21.1271 6.72725 21.1271 6.28194 20.8525 6.00765C20.5778 5.73262 20.1325 5.73299 19.8582 6.00765L2.62793 23.2375C1.37402 24.4914 1.37402 26.5323 2.62793 27.7866L6.96791 32.1262C7.10487 32.2632 7.28505 32.332 7.46486 32.332C7.64503 32.332 7.82484 32.2636 7.96217 32.1262C8.23683 31.8516 8.23683 31.4063 7.96217 31.132L3.62256 26.7924Z" fill="currentColor"></path><path d="M17.4448 14.5756L6.80487 25.2155C6.53021 25.4902 6.53021 25.9355 6.80487 26.2101C6.9422 26.3471 7.12201 26.4159 7.30219 26.4159C7.482 26.4159 7.66181 26.3475 7.79914 26.2101L18.439 15.5702C18.7137 15.2956 18.7137 14.8503 18.439 14.5756C18.1648 14.3013 17.7194 14.3013 17.4448 14.5756Z" fill="currentColor"></path><path d="M23.8792 13.4514C24.6079 13.4514 25.3367 13.1741 25.8915 12.6193L28.0199 10.4909C29.1295 9.38129 29.1295 7.57587 28.0199 6.46625C26.9103 5.35663 25.1049 5.35663 23.9952 6.46625L21.8668 8.59467C21.3292 9.13227 21.0333 9.84675 21.0333 10.607C21.0333 11.3669 21.3292 12.0817 21.8668 12.6193C22.4216 13.1741 23.1504 13.4514 23.8792 13.4514ZM22.8611 9.58894L24.9895 7.46051C25.5509 6.89911 26.4642 6.89911 27.0253 7.46051C27.5867 8.02192 27.5867 8.93525 27.0253 9.49628L24.8969 11.6247C24.3358 12.1861 23.4225 12.1861 22.8611 11.6247C22.5894 11.353 22.4396 10.9915 22.4396 10.607C22.4396 10.2225 22.5894 9.86067 22.8611 9.58894Z" fill="currentColor"></path><path d="M43.236 24.0619H36.4677L41.6826 18.8471C42.9368 17.5928 42.9368 15.5519 41.6826 14.2976L28.8996 1.51502C28.292 0.907471 27.4842 0.572754 26.625 0.572754C25.7659 0.572754 24.958 0.907471 24.3501 1.51502L21.8452 4.0199C21.5709 4.29456 21.5709 4.73951 21.8452 5.01417C22.1199 5.28883 22.5652 5.28883 22.8395 5.01417L25.3448 2.50928C25.6864 2.16724 26.1413 1.97901 26.625 1.97901C27.1084 1.97901 27.5633 2.16724 27.9053 2.50928L40.6879 15.2919C41.394 15.998 41.394 17.1464 40.6879 17.8525L34.4788 24.0616H16.7099L21.8207 18.9507C22.0954 18.6764 22.0954 18.2311 21.8207 17.9565C21.546 17.6818 21.1007 17.6818 20.8264 17.9565L14.7213 24.0619H12.5164C10.7424 24.0619 9.29956 25.5048 9.29956 27.2784V45.356C9.29956 47.1296 10.7424 48.5728 12.5164 48.5728H43.236C45.01 48.5728 46.4528 47.1296 46.4528 45.356V42.7574C46.4528 42.3689 46.1383 42.0543 45.7497 42.0543C45.3615 42.0543 45.0466 42.3689 45.0466 42.7574V45.356C45.0466 46.3543 44.2347 47.1666 43.236 47.1666H12.5164C11.5181 47.1666 10.7058 46.3543 10.7058 45.356V35.4899H45.0466V39.9449C45.0466 40.3331 45.3612 40.648 45.7497 40.648C46.1383 40.648 46.4528 40.3331 46.4528 39.9449V27.2787C46.4528 25.5048 45.01 24.0619 43.236 24.0619ZM12.5164 25.4682H43.236C44.2343 25.4682 45.0466 26.2804 45.0466 27.2787V29.7411H10.7058V27.2787C10.7058 26.2804 11.5181 25.4682 12.5164 25.4682ZM10.7058 34.0837V31.1474H45.0466V34.0837H10.7058Z" fill="currentColor"></path><path d="M37.3389 40.6479C36.7445 40.6479 36.2607 41.1317 36.2607 41.7261V44.4045C36.2607 44.9993 36.7445 45.4827 37.3389 45.4827H41.5994C42.1937 45.4827 42.6775 44.9993 42.6775 44.4045V41.7261C42.6775 41.1317 42.1937 40.6479 41.5994 40.6479H37.3389ZM41.2713 44.0764H37.667V42.0542H41.2713V44.0764Z" fill="currentColor"></path><path d="M24.4933 40.6479C23.8989 40.6479 23.4152 41.1317 23.4152 41.7261V44.4045C23.4152 44.9993 23.8989 45.4827 24.4933 45.4827H33.5047C34.099 45.4827 34.5828 44.9993 34.5828 44.4045V41.7261C34.5828 41.1317 34.099 40.6479 33.5047 40.6479H24.4933ZM33.1765 44.0764H24.8214V42.0542H33.1765V44.0764Z" fill="currentColor"></path><path d="M15.9554 44.0764C15.5673 44.0764 15.2523 44.3914 15.2523 44.7795C15.2523 45.1681 15.5673 45.4827 15.9554 45.4827H20.4452C20.8334 45.4827 21.1483 45.1681 21.1483 44.7795C21.1483 44.3914 20.8334 44.0764 20.4452 44.0764H15.9554Z" fill="currentColor"></path></g></svg>