<svg xmlns="http://www.w3.org/2000/svg" width="48" height="49" viewBox="0 0 48 49" fill="none"><g clip-path="url(#clip0_141_2293)"><path d="M47.8525 15.7287C39.5437 5.07496 39.8981 5.34187 39.4544 5.29837L26.4481 3.54647C23.1695 3.10482 20.9425 3.67885 19.8053 3.78169C19.4236 3.83306 19.156 4.18416 19.2072 4.56581C19.2586 4.94747 19.6102 5.21568 19.9914 5.16384C21.1447 5.05809 23.2131 4.51819 26.2619 4.92862L35.1934 6.13162C34.525 6.26784 24.6687 8.27633 23.9998 8.41264L12.8065 6.13162L16.6755 5.61046C17.0572 5.55909 17.3248 5.208 17.2736 4.82634C17.2222 4.44459 16.8703 4.17684 16.4894 4.22831L8.54603 5.29818C8.5449 5.29828 8.54378 5.29846 8.54265 5.29865L8.53215 5.30006C8.52147 5.30156 8.51106 5.3039 8.50047 5.30587C8.49362 5.30718 8.48659 5.30812 8.47984 5.30962C8.47412 5.31084 8.4684 5.31206 8.46278 5.31337C8.45481 5.31534 8.44694 5.31768 8.43906 5.31984C8.42687 5.32321 8.41469 5.3265 8.40269 5.33053C8.39772 5.33221 8.39303 5.33428 8.38806 5.33606C8.3859 5.33681 8.38375 5.33765 8.38169 5.3385C8.37475 5.34112 8.36753 5.34356 8.36069 5.34628C8.34812 5.35143 8.33594 5.35715 8.32375 5.36306C8.31841 5.36559 8.31315 5.36793 8.3079 5.37056C8.302 5.37356 8.29628 5.37646 8.29056 5.37956C8.28503 5.38256 8.27978 5.38593 8.27425 5.38921C7.97144 5.56565 8.11928 5.57812 0.147468 15.7286C-0.0182809 15.9412 -0.0467808 16.2302 0.0745312 16.4711C0.355218 17.0279 -0.391311 15.9287 14.9976 36.3556C15.2295 36.6631 15.6668 36.7242 15.9743 36.4922C16.2817 36.2603 16.3428 35.8231 16.111 35.5156L2.59424 17.6004L13.5163 21.0406C13.7782 21.7315 21.7783 42.8323 21.9267 43.2238L18.078 38.1228C17.8461 37.8153 17.4089 37.7542 17.1013 37.9861C16.7938 38.2181 16.7328 38.6553 16.9647 38.9628C20.9947 44.3031 21.4099 44.8565 21.4386 44.8888C21.9477 45.4627 22.6519 45.8256 23.3254 45.9392C23.425 45.9562 24.5934 45.9558 24.6911 45.9368C25.5403 45.7719 26.2576 45.2922 26.5962 44.8462L40.2081 26.8047C40.4399 26.4972 40.3788 26.06 40.0714 25.828C39.7637 25.5963 39.3268 25.6574 39.0947 25.9647L26.0729 43.2242C26.4889 42.1271 34.1778 21.847 34.4836 21.0407L45.4057 17.6005L41.0549 23.3668C40.8231 23.6743 40.8841 24.1116 41.1916 24.3435C41.4992 24.5754 41.9364 24.5143 42.1683 24.2068C48.0091 16.458 47.6944 16.9277 47.9249 16.4722C48.0468 16.2312 48.0186 15.9416 47.8525 15.7287ZM23.9999 10.1822L32.4129 19.7798H15.587L23.9999 10.1822ZM1.79343 15.886L8.40887 7.40249L12.8939 19.3827L1.79343 15.886ZM9.71977 6.92586C11.1005 7.20721 21.001 9.22489 22.6839 9.56782L14.2926 19.1407L9.71977 6.92586ZM24.077 44.555H23.923L15.0585 21.1743H32.9415L24.077 44.555ZM33.7072 19.1406L25.3159 9.56782C26.4321 9.34029 36.5636 7.27574 38.28 6.92586L33.7072 19.1406ZM35.1059 19.3825L39.5909 7.4023L46.2065 15.8859L35.1059 19.3825Z" fill="currentColor"></path></g></svg>