<svg xmlns="http://www.w3.org/2000/svg" width="17" height="19" viewBox="0 0 17 19" fill="none"><g clip-path="url(#clip0_89_2537)"><path d="M8.50353 5.59893C6.26759 5.59893 4.46407 7.40244 4.46407 9.63838C4.46407 11.8743 6.26759 13.6778 8.50353 13.6778C10.7395 13.6778 12.543 11.8743 12.543 9.63838C12.543 7.40244 10.7395 5.59893 8.50353 5.59893ZM8.50353 12.2646C7.05861 12.2646 5.87736 11.0868 5.87736 9.63838C5.87736 8.18994 7.05509 7.01221 8.50353 7.01221C9.95197 7.01221 11.1297 8.18994 11.1297 9.63838C11.1297 11.0868 9.94845 12.2646 8.50353 12.2646ZM13.6504 5.43369C13.6504 5.95752 13.2285 6.37588 12.7082 6.37588C12.1844 6.37588 11.766 5.954 11.766 5.43369C11.766 4.91338 12.1879 4.4915 12.7082 4.4915C13.2285 4.4915 13.6504 4.91338 13.6504 5.43369ZM16.3258 6.38994C16.266 5.12783 15.9777 4.00986 15.0531 3.08877C14.132 2.16768 13.0141 1.87939 11.752 1.81611C10.4512 1.74229 6.55236 1.74229 5.25157 1.81611C3.99298 1.87588 2.87501 2.16416 1.9504 3.08525C1.02579 4.00635 0.741028 5.12432 0.677747 6.38643C0.603918 7.68721 0.603918 11.586 0.677747 12.8868C0.737512 14.1489 1.02579 15.2669 1.9504 16.188C2.87501 17.1091 3.98947 17.3974 5.25157 17.4606C6.55236 17.5345 10.4512 17.5345 11.752 17.4606C13.0141 17.4009 14.132 17.1126 15.0531 16.188C15.9742 15.2669 16.2625 14.1489 16.3258 12.8868C16.3996 11.586 16.3996 7.69072 16.3258 6.38994ZM14.6453 14.2825C14.3711 14.9716 13.8402 15.5024 13.1477 15.7802C12.1106 16.1915 9.64962 16.0966 8.50353 16.0966C7.35743 16.0966 4.89298 16.188 3.85939 15.7802C3.17032 15.506 2.63947 14.9751 2.36173 14.2825C1.9504 13.2454 2.04532 10.7845 2.04532 9.63838C2.04532 8.49229 1.95392 6.02783 2.36173 4.99424C2.63595 4.30518 3.16681 3.77432 3.85939 3.49658C4.8965 3.08525 7.35743 3.18018 8.50353 3.18018C9.64962 3.18018 12.1141 3.08877 13.1477 3.49658C13.8367 3.7708 14.3676 4.30166 14.6453 4.99424C15.0567 6.03135 14.9617 8.49229 14.9617 9.63838C14.9617 10.7845 15.0567 13.2489 14.6453 14.2825Z"></path></g></svg>