<svg xmlns="http://www.w3.org/2000/svg" width="15" height="19" viewBox="0 0 15 19" fill="none"><g clip-path="url(#clip0_89_2540)"><path d="M7.92188 0.870605C4.31484 0.870605 0.75 3.27529 0.75 7.16709C0.75 9.64209 2.14219 11.0483 2.98594 11.0483C3.33398 11.0483 3.53437 10.078 3.53437 9.80381C3.53437 9.47686 2.70117 8.78076 2.70117 7.42021C2.70117 4.59365 4.85273 2.58975 7.63711 2.58975C10.0312 2.58975 11.8031 3.95029 11.8031 6.4499C11.8031 8.3167 11.0543 11.8183 8.62852 11.8183C7.75313 11.8183 7.0043 11.1854 7.0043 10.2784C7.0043 8.94951 7.93242 7.66279 7.93242 6.2917C7.93242 3.96436 4.63125 4.38623 4.63125 7.19873C4.63125 7.78936 4.70508 8.44326 4.96875 8.98115C4.48359 11.0694 3.49219 14.1808 3.49219 16.3323C3.49219 16.9968 3.58711 17.6507 3.65039 18.3151C3.76992 18.4487 3.71016 18.4347 3.89297 18.3679C5.66484 15.9421 5.60156 15.4675 6.40313 12.2929C6.83555 13.1155 7.95352 13.5585 8.83945 13.5585C12.573 13.5585 14.25 9.91982 14.25 6.63975C14.25 3.14873 11.2336 0.870605 7.92188 0.870605Z"></path></g></svg>