<svg xmlns="http://www.w3.org/2000/svg" width="48" height="49" viewBox="0 0 48 49" fill="none"><g clip-path="url(#clip0_141_2383)"><path d="M24.9631 23.2862C25.7773 22.4729 26.2815 21.3495 26.2815 20.1104C26.2815 17.6338 24.2667 15.6189 21.7901 15.6189C19.3135 15.6189 17.2986 17.6337 17.2986 20.1104C17.2986 21.3494 17.803 22.4728 18.617 23.2862C16.5703 23.7043 15.0256 25.5186 15.0256 27.6871V30.3389C15.0256 30.7273 15.3404 31.042 15.7288 31.042H27.8514C28.2397 31.042 28.5545 30.7272 28.5545 30.3389V27.6871C28.5545 25.5186 27.0099 23.7042 24.9631 23.2862ZM21.7901 17.0252C23.4913 17.0252 24.8752 18.4093 24.8752 20.1104C24.8752 21.8115 23.4912 23.1955 21.7901 23.1955C20.0889 23.1955 18.7049 21.8115 18.7049 20.1104C18.7049 18.4093 20.0889 17.0252 21.7901 17.0252ZM27.1483 29.6356H25.5239V28.6341C25.5239 28.2457 25.2091 27.931 24.8208 27.931C24.4325 27.931 24.1177 28.2458 24.1177 28.6341V29.6356H19.4627V28.6341C19.4627 28.2457 19.1479 27.931 18.7596 27.931C18.3713 27.931 18.0565 28.2458 18.0565 28.6341V29.6356H16.4322V27.6871C16.4322 25.9859 17.8162 24.6018 19.5173 24.6018H24.0632C25.7644 24.6018 27.1484 25.9859 27.1484 27.6871V29.6356H27.1483Z" fill="currentColor"></path><path d="M43.5051 38.5357C43.511 38.9203 43.8246 39.2279 44.2079 39.2279C44.2116 39.2279 44.2154 39.2279 44.2191 39.2278C44.6074 39.2218 44.9173 38.9022 44.9112 38.5138C44.8739 36.1051 43.9075 33.8466 42.1903 32.1542C41.559 31.5321 40.8524 31.013 40.0917 30.6047C40.3521 29.2596 40.4841 27.8862 40.4841 26.514L40.487 14.7786C40.4871 14.3902 40.1723 14.0754 39.784 14.0753C39.7839 14.0753 39.7839 14.0753 39.7838 14.0753C39.3956 14.0753 39.0808 14.39 39.0807 14.7782L39.0779 26.5138C39.0779 27.6908 38.9724 28.8681 38.7674 30.0253C38.2556 29.8487 37.7271 29.7178 37.1867 29.6347C37.3626 28.6078 37.453 27.5616 37.453 26.514L37.4568 10.0787C37.4569 9.75125 37.2308 9.467 36.9117 9.39341C34.3687 8.80663 32.3467 6.78482 31.7601 4.2426C31.6865 3.92357 31.4023 3.69754 31.0748 3.69754H12.5047C12.1773 3.69754 11.8932 3.92357 11.8195 4.2426C11.2329 6.78482 9.21084 8.80653 6.66787 9.39341C6.34884 9.467 6.1229 9.75107 6.1228 10.0783L6.11999 23.0157C6.1199 23.4041 6.43471 23.7189 6.82302 23.719C7.21124 23.719 7.52615 23.4042 7.52624 23.016L7.52887 10.6179C10.1542 9.81679 12.2427 7.7285 13.0438 5.10388H30.5354C31.3365 7.72832 33.4251 9.8165 36.0501 10.6178L36.0465 26.5138C36.0465 27.5263 35.9554 28.5372 35.7778 29.5272C34.6416 29.5275 33.5536 29.7371 32.5493 30.1183C33.3857 28.4773 33.8579 26.621 33.8579 24.6564C33.8579 18.002 28.4442 12.5882 21.7898 12.5882C15.1355 12.5882 9.72168 18.0019 9.72168 24.6564C9.72168 31.3107 15.1355 36.7244 21.7898 36.7244C23.7507 36.7244 25.6037 36.254 27.2423 35.4206C26.8591 36.4275 26.6485 37.519 26.6485 38.6589C26.6485 39.6642 26.8122 40.6318 27.1136 41.5371C26.9613 41.6199 26.8087 41.7001 26.6567 41.7767L21.8932 44.1838C21.8252 44.2187 21.7465 44.2186 21.6759 44.1824L16.9149 41.7766C14.0892 40.3494 11.7188 38.1699 10.0602 35.4741C8.40187 32.777 7.52521 29.6785 7.52521 26.5138V26.2971C7.52521 25.9087 7.2104 25.594 6.82209 25.594C6.43377 25.594 6.11896 25.9088 6.11896 26.2971V26.5138C6.11896 29.9387 7.06762 33.2919 8.86246 36.2108C10.6576 39.1286 13.2229 41.4872 16.2809 43.0318L21.0401 45.4367C21.2742 45.5559 21.5309 45.6153 21.7871 45.6152C22.043 45.6152 22.2983 45.556 22.5303 45.4376L27.2905 43.032C27.4144 42.9696 27.5386 42.9045 27.6627 42.8382C27.9135 43.3234 28.2068 43.7832 28.5372 44.2131C28.3666 44.3055 28.1953 44.3959 28.0237 44.4823L23.178 46.931C22.3067 47.3705 21.2658 47.3705 20.3944 46.9312L15.5481 44.4823C12.2221 42.8017 9.43209 40.2357 7.47955 37.0613C5.52712 33.8872 4.49512 30.2398 4.49512 26.5138L4.49887 8.18816C4.49887 8.05372 4.60818 7.94432 4.74262 7.94432H5.12137C8.0159 7.94432 10.3707 5.58941 10.3707 2.69497V2.31622C10.3707 2.18179 10.4801 2.07247 10.6145 2.07247H32.9657C33.1001 2.07247 33.2094 2.18179 33.2094 2.31622V2.69497C33.2094 5.5895 35.5642 7.94432 38.4588 7.94432H38.8375C38.972 7.94432 39.0813 8.05372 39.0813 8.18797L39.0803 11.4965C39.0802 11.8848 39.395 12.1997 39.7833 12.1998H39.7835C40.1717 12.1998 40.4865 11.8851 40.4866 11.4969L40.4875 8.18816C40.4875 7.27822 39.7473 6.53797 38.8374 6.53797H38.4587C36.3396 6.53797 34.6157 4.814 34.6157 2.69488V2.31613C34.616 1.40675 33.8757 0.666504 32.9659 0.666504H10.6146C9.7048 0.666504 8.96456 1.40675 8.96456 2.3166V2.69535C8.96456 4.81447 7.24059 6.53844 5.12146 6.53844H4.74271C3.83287 6.53844 3.09262 7.27869 3.09262 8.18844L3.08887 26.514C3.08887 30.5006 4.19296 34.4026 6.28171 37.7985C8.37065 41.1946 11.3556 43.94 14.9139 45.7379L19.7609 48.1872C20.3951 48.5068 21.0906 48.6667 21.7863 48.6667C22.482 48.6667 23.1777 48.5068 23.8118 48.187L28.6575 45.7383C28.9407 45.5955 29.2237 45.4438 29.504 45.2862C31.1417 46.8383 33.3522 47.7917 35.7813 47.7917C37.6522 47.7917 39.4509 47.2296 40.9829 46.1661C42.4791 45.1274 43.6206 43.6858 44.284 41.9969C44.426 41.6354 44.2481 41.2273 43.8866 41.0854C43.5251 40.943 43.117 41.1213 42.975 41.4828C42.4138 42.9116 41.4476 44.1316 40.181 45.0109C38.8856 45.9102 37.3642 46.3855 35.7813 46.3855C31.521 46.3855 28.055 42.9194 28.055 38.6592C28.055 34.3993 31.521 30.9337 35.7813 30.9337C37.8233 30.9337 39.7489 31.723 41.2031 33.1561C42.6559 34.5878 43.4734 36.4983 43.5051 38.5357ZM11.1282 24.6565C11.1282 18.7775 15.9111 13.9947 21.79 13.9947C27.669 13.9947 32.4518 18.7775 32.4518 24.6565C32.4518 30.5354 27.669 35.3182 21.79 35.3182C15.9111 35.3182 11.1282 30.5354 11.1282 24.6565Z" fill="currentColor"></path><path d="M35.0473 38.162C34.7726 37.8875 34.3274 37.8874 34.0528 38.1621C33.7782 38.4367 33.7783 38.8819 34.0528 39.1565L34.8736 39.9772C35.011 40.1144 35.1909 40.1831 35.3709 40.1831C35.5509 40.1831 35.7308 40.1144 35.868 39.9772L37.5096 38.3356C37.7842 38.0609 37.7842 37.6158 37.5096 37.3411C37.2351 37.0666 36.7898 37.0666 36.5152 37.3411L35.3708 38.4855L35.0473 38.162Z" fill="currentColor"></path><path d="M30.5322 38.6591C30.5322 41.5534 32.887 43.9081 35.7814 43.9081C38.6757 43.9081 41.0305 41.5533 41.0305 38.6591C41.0305 35.7646 38.6757 33.4099 35.7814 33.4099C32.887 33.4099 30.5322 35.7646 30.5322 38.6591ZM39.6242 38.6591C39.6242 40.778 37.9003 42.5019 35.7814 42.5019C33.6624 42.5019 31.9386 40.778 31.9386 38.6591C31.9386 36.5401 33.6624 34.8162 35.7814 34.8162C37.9003 34.8162 39.6242 36.5401 39.6242 38.6591Z" fill="currentColor"></path></g></svg>