<svg xmlns="http://www.w3.org/2000/svg" width="49" height="48" viewBox="0 0 49 48" fill="none"><path d="M31.5333 27.736C31.5578 28.4327 31.4217 29.1256 31.1356 29.7613C30.8495 30.397 30.421 30.9583 29.8833 31.402C28.5487 32.4134 26.9365 32.992 25.2633 33.06V36H23.2993V33.116C21.1911 33.1158 19.1039 32.6963 17.1593 31.882V28.096C18.1221 28.5545 19.1267 28.9195 20.1593 29.186C21.1835 29.4763 22.234 29.6639 23.2953 29.746V25.298L22.3333 24.926C20.8285 24.4233 19.454 23.5926 18.3093 22.494C17.5156 21.6012 17.0946 20.438 17.1333 19.244C17.1211 18.5868 17.2619 17.9357 17.5444 17.3422C17.8269 16.7487 18.2435 16.2289 18.7613 15.824C20.0802 14.8446 21.6605 14.2793 23.3013 14.2V12H25.2653V14.138C27.3108 14.2001 29.3261 14.648 31.2053 15.458L29.8573 18.814C28.3901 18.2085 26.8388 17.8315 25.2573 17.696V21.928C26.6435 22.4149 27.9775 23.0393 29.2393 23.792C29.9418 24.2312 30.5349 24.825 30.9733 25.528C31.3557 26.2 31.5492 26.963 31.5333 27.736ZM21.4493 19.244C21.4434 19.4386 21.4794 19.6323 21.555 19.8117C21.6306 19.9912 21.7439 20.1523 21.8873 20.284C22.3105 20.6381 22.7879 20.9217 23.3013 21.124V17.752C22.068 17.9347 21.4506 18.432 21.4493 19.244ZM27.2173 27.952C27.2183 27.7564 27.1749 27.5632 27.0904 27.3869C27.0059 27.2105 26.8824 27.0557 26.7293 26.934C26.2822 26.5823 25.7897 26.2924 25.2653 26.072V29.644C26.5653 29.424 27.216 28.86 27.2173 27.952Z" fill="currentColor"></path><path d="M6.26531 2.26001L4.80731 13.854L16.1913 10.682" stroke="currentColor" stroke-width="1.5" stroke-linecap="round" stroke-linejoin="round"></path><path d="M4.80731 13.8539C7.2857 9.07946 11.4275 5.37853 16.4496 3.45083C21.4717 1.52313 27.0261 1.50227 32.0625 3.3922C37.099 5.28212 41.2685 8.95185 43.7826 13.7075C46.2968 18.4632 46.9814 23.9753 45.7071 29.2015C44.4327 34.4278 41.2877 39.006 36.8666 42.0706C32.4455 45.1352 27.0548 46.4738 21.7137 45.8332C16.3726 45.1927 11.4513 42.6174 7.88021 38.5944C4.30913 34.5713 2.3358 29.3793 2.33331 23.9999" stroke="currentColor" stroke-width="1.5" stroke-linecap="round" stroke-linejoin="round"></path></svg>