<svg xmlns="http://www.w3.org/2000/svg" width="48" height="48" viewBox="0 0 48 48" fill="none"><g clip-path="url(#clip0_87_282)"><path d="M39.556 8.44409L31.072 16.9281" stroke="currentColor" stroke-width="1.5" stroke-linecap="round" stroke-linejoin="round"></path><path d="M39.556 39.556L31.072 31.072" stroke="currentColor" stroke-width="1.5" stroke-linecap="round" stroke-linejoin="round"></path><path d="M8.444 39.556L16.928 31.072" stroke="currentColor" stroke-width="1.5" stroke-linecap="round" stroke-linejoin="round"></path><path d="M8.444 8.44409L16.928 16.9281" stroke="currentColor" stroke-width="1.5" stroke-linecap="round" stroke-linejoin="round"></path><path d="M39.5558 39.5562C48.1473 30.9647 48.1473 17.0353 39.5558 8.4438C30.9644 -0.147651 17.0349 -0.147651 8.44341 8.4438C-0.148045 17.0353 -0.148045 30.9647 8.44341 39.5562C17.0349 48.1477 30.9644 48.1477 39.5558 39.5562Z" stroke="currentColor" stroke-width="1.5" stroke-linecap="round" stroke-linejoin="round"></path><path d="M31.0706 31.071C34.9758 27.1658 34.9758 20.8342 31.0706 16.929C27.1654 13.0238 20.8338 13.0238 16.9286 16.929C13.0234 20.8342 13.0234 27.1658 16.9286 31.071C20.8338 34.9762 27.1654 34.9762 31.0706 31.071Z" stroke="currentColor" stroke-width="1.5" stroke-linecap="round" stroke-linejoin="round"></path></g></svg>