<svg xmlns="http://www.w3.org/2000/svg" width="48" height="49" viewBox="0 0 48 49" fill="none"><g clip-path="url(#clip0_141_2368)"><path d="M44.1486 4.15894H38.0135C37.6252 4.15894 37.3104 4.47375 37.3104 4.86206C37.3104 5.25037 37.6252 5.56519 38.0135 5.56519H44.1486C44.537 5.56519 44.8518 5.25037 44.8518 4.86206C44.8518 4.47375 44.5371 4.15894 44.1486 4.15894Z" fill="currentColor"></path><path d="M34.5297 5.56519H35.2775C35.6658 5.56519 35.9806 5.25037 35.9806 4.86206C35.9806 4.47375 35.6658 4.15894 35.2775 4.15894H34.5297C34.1414 4.15894 33.8265 4.47375 33.8265 4.86206C33.8265 5.25037 34.1414 5.56519 34.5297 5.56519Z" fill="currentColor"></path><path d="M34.5297 8.86816H44.1488C44.5371 8.86816 44.8519 8.55335 44.8519 8.16504C44.8519 7.77673 44.5371 7.46191 44.1488 7.46191H34.5297C34.1414 7.46191 33.8265 7.77673 33.8265 8.16504C33.8265 8.55335 34.1414 8.86816 34.5297 8.86816Z" fill="currentColor"></path><path d="M37.0728 42.3008C37.0728 39.4921 36.1351 36.7367 34.4272 34.5104L34.5575 32.11C34.6462 30.4759 33.3494 29.0935 31.7002 29.0935H24.0035C23.6494 28.8433 23.4346 28.4369 23.4346 27.9979V26.0347C24.6279 25.263 25.4658 24.3828 26.0813 23.3355H27.4419C29.0161 23.3355 30.2967 22.0548 30.2967 20.4807V15.2295C30.2967 14.3439 29.7844 13.561 29.0182 13.1906V9.50526C29.0182 7.82751 27.6532 6.46251 25.9755 6.46251H25.8967C25.8487 6.46251 25.8097 6.42342 25.8097 6.37551C25.8097 4.69776 24.4447 3.33276 22.7669 3.33276H15.3204C11.6242 3.33276 8.61694 6.33998 8.61694 10.0363V13.1905C7.85081 13.5609 7.33838 14.3438 7.33838 15.2295V17.9C7.33838 19.1495 8.35491 20.166 9.60441 20.166H10.5121C10.747 22.1532 11.6792 23.968 13.1392 25.2297C13.4818 25.5257 13.8361 25.7902 14.2005 26.0265V27.9978C14.2005 28.4355 13.9849 28.842 13.6292 29.0934H5.93522C4.29872 29.0934 2.98856 30.4631 3.078 32.1099L3.20831 34.5104C1.50028 36.7367 0.562594 39.4921 0.562594 42.3008V44.9491C0.213 45.3409 0 45.857 0 46.4221C0 47.6435 0.993656 48.6371 2.21503 48.6371H35.4203C36.6417 48.6371 37.6354 47.6434 37.6354 46.4221C37.6354 45.857 37.4224 45.3409 37.0728 44.9492V42.3008ZM35.6665 42.3008V44.2211C35.5856 44.2121 35.5036 44.2071 35.4203 44.2071H33.9008L34.2977 36.8955C35.1877 38.5485 35.6665 40.4106 35.6665 42.3008ZM28.8184 14.8862C28.8646 14.992 28.8907 15.108 28.8907 15.2296V17.9002C28.8907 18.3743 28.505 18.76 28.0309 18.76H27.1947V16.1094L27.628 15.9585C28.1641 15.7717 28.5857 15.378 28.8184 14.8862ZM24.124 23.0329H22.3595C22.075 23.0329 21.8436 22.8015 21.8436 22.5171C21.8436 22.2327 22.075 22.0013 22.3595 22.0013H24.124C24.4085 22.0013 24.6398 22.2327 24.6398 22.5171C24.6398 22.8015 24.4085 23.0329 24.124 23.0329ZM27.4421 21.9293H26.7314C26.9294 21.3647 27.0661 20.7734 27.1382 20.1662H28.0309C28.3351 20.1662 28.6253 20.1056 28.8907 19.9964V20.4809C28.8907 21.2795 28.2408 21.9293 27.4421 21.9293ZM10.0234 10.0365C10.0234 7.11558 12.3997 4.7392 15.3206 4.7392H22.7671C23.6694 4.7392 24.4036 5.47336 24.4036 6.3757C24.4036 7.19911 25.0735 7.86895 25.8968 7.86895H25.9757C26.878 7.86895 27.6121 8.60311 27.6121 9.50545V14.002C27.6121 14.2849 27.4326 14.5375 27.1654 14.6306L25.6878 15.1452C25.6282 15.1658 25.5668 15.1229 25.5668 15.0588L25.5696 12.2647C25.5781 10.2255 23.6687 8.44711 20.9934 9.30642C19.6479 9.7388 17.9828 9.7373 16.6418 9.30642C13.9943 8.45555 12.0572 10.2024 12.0657 12.2625L12.069 15.059C12.069 15.1235 12.0062 15.166 11.9481 15.1452L10.47 14.6305C10.2028 14.5375 10.0233 14.2848 10.0233 14.0019L10.0234 10.0365ZM8.74481 17.9002V15.2295C8.74481 15.108 8.77088 14.9919 8.81709 14.8861C9.04988 15.378 9.47147 15.7717 10.0077 15.9585L10.4409 16.1093V18.7599H9.60469C9.1305 18.76 8.74481 18.3742 8.74481 17.9002ZM11.86 19.3541C11.8367 18.4297 11.851 17.4485 11.8471 16.5502C11.8904 16.554 11.9338 16.5561 11.9772 16.5561C12.8132 16.5561 13.4767 15.8766 13.4752 15.057L13.472 12.2587C13.4672 11.117 14.4913 10.0922 16.2116 10.6452C17.8421 11.169 19.7985 11.1675 21.4237 10.6452C23.0627 10.1186 24.1684 11.0457 24.1633 12.261L24.1606 15.0571C24.1595 15.9286 24.9044 16.6269 25.7883 16.5502V19.411C25.7678 20.0187 25.6678 20.6117 25.4981 21.1757C25.1489 20.818 24.6622 20.595 24.124 20.595H22.3595C21.2996 20.595 20.4373 21.4572 20.4373 22.517C20.4373 23.5769 21.2996 24.4391 22.3595 24.4391H23.2528C21.9541 25.4528 20.4773 25.9814 18.8545 26.0083C15.3048 25.9799 11.9616 23.3574 11.86 19.3541ZM15.607 27.998V26.7677C16.6234 27.1886 17.7076 27.4066 18.8527 27.4147H18.8576C18.8613 27.4147 18.8649 27.4147 18.8686 27.4146C19.9834 27.3973 21.0388 27.1813 22.0286 26.7735V27.9979C22.0286 28.3818 22.109 28.7534 22.2569 29.0935H15.3779C15.5263 28.7534 15.607 28.3816 15.607 27.998ZM3.33769 36.8955L3.44869 38.9413C3.46978 39.3291 3.80194 39.6273 4.18884 39.6053C4.57659 39.5843 4.87387 39.2529 4.85287 38.8651L4.48209 32.0339C4.437 31.2029 5.09644 30.4998 5.93522 30.4998H31.7002C32.5328 30.4998 33.1987 31.1966 33.1534 32.0339L32.4926 44.2072H21.4669C21.6012 43.404 21.9629 42.6486 22.5201 42.0297L22.5402 42.0072C24.6685 39.6261 24.0315 35.9027 21.2805 34.3395C20.5746 33.9385 19.678 34.4386 19.678 35.2701V38.4604C19.678 38.6067 19.5591 38.7255 19.4128 38.7255H18.2226C18.0763 38.7255 17.9573 38.6066 17.9573 38.4604V35.2701C17.9573 34.4402 17.0622 33.9376 16.3549 34.3395C13.596 35.907 12.9719 39.6318 15.0973 42.0095L15.1153 42.0297C15.6725 42.6485 16.0342 43.4039 16.1685 44.2071H5.14284L5.03006 42.1284C5.00906 41.7406 4.67766 41.443 4.28991 41.4644C3.90216 41.4854 3.60487 41.8168 3.62587 42.2045L3.73453 44.2071H2.21503C2.13178 44.2071 2.04975 44.2122 1.96884 44.2211V42.3008C1.96884 40.4107 2.44781 38.5485 3.33769 36.8955ZM17.5893 44.2071C17.4454 43.055 16.9515 41.9674 16.1606 41.0889L16.1437 41.0699C14.7851 39.5502 14.9671 37.2001 16.5512 35.904V38.4603C16.5512 39.382 17.301 40.1317 18.2227 40.1317H19.4129C20.3346 40.1317 21.0844 39.3819 21.0844 38.4603V35.904C22.658 37.1915 22.8595 39.5399 21.4901 41.0718L21.4749 41.0888C20.684 41.9674 20.1901 43.055 20.0462 44.2071H17.5893ZM35.4203 47.2309H2.21503C1.76906 47.2309 1.40625 46.8681 1.40625 46.4222C1.40625 45.9764 1.76906 45.6135 2.21503 45.6135H35.4203C35.8663 45.6135 36.2291 45.9763 36.2291 46.4222C36.2291 46.8682 35.8663 47.2309 35.4203 47.2309Z" fill="currentColor"></path><path d="M47.2968 5.50771C47.6851 5.50771 47.9999 5.19289 47.9999 4.80458V3.44371C47.9999 1.92852 46.7672 0.695801 45.2519 0.695801H33.4262C31.9109 0.695801 30.6782 1.92852 30.6782 3.44371V9.35821C30.6782 10.8735 31.9109 12.1062 33.4262 12.1062C33.697 12.1062 33.9173 12.3265 33.9173 12.5973V16.2549C33.9173 16.7832 34.2593 17.2328 34.7684 17.3737C35.2806 17.5155 35.8037 17.3023 36.0738 16.8519L38.7766 12.3447C38.8649 12.1976 39.0263 12.1062 39.1978 12.1062H45.252C46.7673 12.1062 48 10.8735 48 9.35821V8.09183C48 7.70352 47.6852 7.38871 47.2969 7.38871C46.9086 7.38871 46.5938 7.70352 46.5938 8.09183V9.35821C46.5938 10.0981 45.9919 10.7 45.252 10.7H39.1978C38.5349 10.7 37.9114 11.0531 37.5705 11.6215L35.3234 15.3687V12.5973C35.3234 11.5511 34.4723 10.7 33.4261 10.7C32.6863 10.7 32.0844 10.0981 32.0844 9.35821V3.44371C32.0844 2.70393 32.6863 2.10205 33.4261 2.10205H45.2519C45.9918 2.10205 46.5937 2.70393 46.5937 3.44371V4.80458C46.5937 5.19289 46.9085 5.50771 47.2968 5.50771Z" fill="currentColor"></path></g></svg>