<svg xmlns="http://www.w3.org/2000/svg" width="16" height="15" viewBox="0 0 16 15" fill="none"><path d="M14.4155 7.66677L7.99999 14.3335L1.58449 7.66677C1.19214 7.25367 0.893825 6.76056 0.710027 6.22129C0.52623 5.68203 0.461302 5.10937 0.519702 4.54264C0.578101 3.97592 0.758445 3.42854 1.04835 2.93808C1.33826 2.44763 1.73086 2.02572 2.19921 1.70131C2.66756 1.3769 3.20057 1.15768 3.76163 1.05871C4.3227 0.959726 4.89854 0.983329 5.44962 1.12789C6.0007 1.27246 6.51398 1.53456 6.95421 1.89621C7.39444 2.25786 7.7512 2.71049 7.99999 3.22302C8.24879 2.71049 8.60555 2.25786 9.04578 1.89621C9.48601 1.53456 9.99928 1.27246 10.5504 1.12789C11.1014 0.983329 11.6773 0.959726 12.2384 1.05871C12.7994 1.15768 13.3324 1.3769 13.8008 1.70131C14.2691 2.02572 14.6617 2.44763 14.9516 2.93808C15.2415 3.42854 15.4219 3.97592 15.4803 4.54264C15.5387 5.10937 15.4738 5.68203 15.29 6.22129C15.1062 6.76056 14.8078 7.25367 14.4155 7.66677Z" stroke="currentColor" stroke-linecap="round" stroke-linejoin="round"></path></svg>